name rise38.3101peak57.3503fall81.6963.mot
datacolumns 19
datarows 23
range 22.41658400000000 22.45325000000000
endheader
time	ground_force1_vx	ground_force1_vy	ground_force1_vz	ground_force1_px	ground_force1_py	ground_force1_pz	ground_force2_vx	ground_force2_vy	ground_force2_vz	ground_force2_px	ground_force2_py	ground_force2_pz	ground_torque1_x	ground_torque1_y	ground_torque1_z	ground_torque2_x	ground_torque2_y	ground_torque2_z	
22.41658400000000	-7.12191700000000	44.78069300000000	-11.50330900000000	0.36966700000000	0.00000000000000	0.08599100000000	-54.12008000000000	807.19837600000005	-64.35730800000000	0.14911200000000	0.00000000000000	-0.09733300000000	0.00000000000000	-9.04785500000000	0.00000000000000	0.00000000000000	-28.60190500000000	0.00000000000000	
22.41825100000000	-7.59431600000000	51.10897100000000	-12.67865400000000	0.37214200000000	0.00000000000000	0.08704700000000	-54.49433600000000	804.22657200000003	-63.89454100000000	0.14848400000000	0.00000000000000	-0.09721600000000	0.00000000000000	-10.03023200000000	0.00000000000000	0.00000000000000	-28.46030000000000	0.00000000000000	
22.41991500000000	-7.91477900000000	57.36324300000000	-13.71497000000000	0.37450600000000	0.00000000000000	0.08803700000000	-54.87143400000000	801.09954700000003	-63.39642400000000	0.14786700000000	0.00000000000000	-0.09709300000000	0.00000000000000	-10.91704400000000	0.00000000000000	0.00000000000000	-28.31369400000000	0.00000000000000	
22.42159000000000	-8.07161100000000	63.48352800000000	-14.59422300000000	0.37676800000000	0.00000000000000	0.08896900000000	-55.25165800000000	797.81682599999999	-62.86297400000000	0.14726300000000	0.00000000000000	-0.09696400000000	0.00000000000000	-11.69390700000000	0.00000000000000	0.00000000000000	-28.16220500000000	0.00000000000000	
22.42325900000000	-8.06035300000000	69.43519900000000	-15.30749500000000	0.37893700000000	0.00000000000000	0.08984800000000	-55.63523600000000	794.37798099999998	-62.29426100000000	0.14667200000000	0.00000000000000	-0.09683000000000	0.00000000000000	-12.35340100000000	0.00000000000000	0.00000000000000	-28.00594700000000	0.00000000000000	
22.42494400000000	-7.88311900000000	75.20823700000000	-15.85435600000000	0.38102100000000	0.00000000000000	0.09068100000000	-56.02233900000000	790.78263200000004	-61.69041100000000	0.14609200000000	0.00000000000000	-0.09668900000000	0.00000000000000	-12.89465900000000	0.00000000000000	0.00000000000000	-27.84502300000000	0.00000000000000	
22.42658200000000	-7.54751700000000	80.81458100000000	-16.24163900000000	0.38302300000000	0.00000000000000	0.09147200000000	-56.41307700000000	787.03044000000000	-61.05161000000000	0.14552500000000	0.00000000000000	-0.09654300000000	0.00000000000000	-13.32248000000000	0.00000000000000	0.00000000000000	-27.67953200000000	0.00000000000000	
22.42825500000000	-7.06530800000000	86.28412100000000	-16.48184400000000	0.38495000000000	0.00000000000000	0.09222500000000	-56.80749500000000	783.12110900000005	-60.37810100000000	0.14497000000000	0.00000000000000	-0.09639000000000	0.00000000000000	-13.64612800000000	0.00000000000000	0.00000000000000	-27.50956500000000	0.00000000000000	
22.42991800000000	-6.45096500000000	91.65991200000001	-16.59134100000000	0.38680400000000	0.00000000000000	0.09294400000000	-57.20556900000000	779.05438200000003	-59.67018700000000	0.14442600000000	0.00000000000000	-0.09623200000000	0.00000000000000	-13.87797100000000	0.00000000000000	0.00000000000000	-27.33520400000000	0.00000000000000	
22.43158100000000	-5.72026600000000	96.99312700000000	-16.58858400000000	0.38858900000000	0.00000000000000	0.09363200000000	-57.60720300000000	774.83003799999994	-58.92823100000000	0.14389500000000	0.00000000000000	-0.09606700000000	0.00000000000000	-14.03209500000000	0.00000000000000	0.00000000000000	-27.15652400000000	0.00000000000000	
22.43325400000000	-4.88902200000000	102.33821500000001	-16.49245300000000	0.39030600000000	0.00000000000000	0.09429100000000	-58.01222800000000	770.44789300000002	-58.15265600000000	0.14337500000000	0.00000000000000	-0.09589600000000	0.00000000000000	-14.12301800000000	0.00000000000000	0.00000000000000	-26.97359000000000	0.00000000000000	
22.43492400000000	-3.97203400000000	107.74860500000000	-16.32085300000000	0.39195800000000	0.00000000000000	0.09492400000000	-58.42039500000000	765.90779799999996	-57.34395000000000	0.14286600000000	0.00000000000000	-0.09571900000000	0.00000000000000	-14.16457900000000	0.00000000000000	0.00000000000000	-26.78645900000000	0.00000000000000	
22.43658400000000	-2.98230900000000	113.27320500000000	-16.08962700000000	0.39354600000000	0.00000000000000	0.09553300000000	-58.83137500000000	761.20963800000004	-56.50266000000000	0.14236800000000	0.00000000000000	-0.09553700000000	0.00000000000000	-14.16907300000000	0.00000000000000	0.00000000000000	-26.59517800000000	0.00000000000000	
22.43825200000000	-1.93054900000000	118.95382700000000	-15.81181800000000	0.39507100000000	0.00000000000000	0.09611900000000	-59.24475900000000	756.35333200000002	-55.62939900000000	0.14188100000000	0.00000000000000	-0.09534800000000	0.00000000000000	-14.14664600000000	0.00000000000000	0.00000000000000	-26.39978600000000	0.00000000000000	
22.43992000000000	-0.82491900000000	124.82356500000000	-15.49726800000000	0.39653400000000	0.00000000000000	0.09668500000000	-59.66005100000000	751.33883600000001	-54.72484000000000	0.14140400000000	0.00000000000000	-0.09515300000000	0.00000000000000	-14.10495700000000	0.00000000000000	0.00000000000000	-26.20031100000000	0.00000000000000	
22.44159000000000	0.32895600000000	130.90608000000000	-15.15253000000000	0.39793600000000	0.00000000000000	0.09723100000000	-60.07667100000000	746.16614300000003	-53.78972200000000	0.14093600000000	0.00000000000000	-0.09495200000000	0.00000000000000	-14.04909000000000	0.00000000000000	0.00000000000000	-25.99677300000000	0.00000000000000	
22.44325100000000	1.52779600000000	137.21568500000001	-14.78104700000000	0.39927700000000	0.00000000000000	0.09776000000000	-60.49395200000000	740.83528600000000	-52.82484400000000	0.14047900000000	0.00000000000000	-0.09474600000000	0.00000000000000	-13.98166500000000	0.00000000000000	0.00000000000000	-25.78918400000000	0.00000000000000	
22.44491700000000	2.77032500000000	143.75806399999999	-14.38352000000000	0.40055800000000	0.00000000000000	0.09827100000000	-60.91114000000000	735.34634300000005	-51.83107200000000	0.14003000000000	0.00000000000000	-0.09453300000000	0.00000000000000	-13.90312000000000	0.00000000000000	0.00000000000000	-25.57754600000000	0.00000000000000	
22.44658400000000	4.05683900000000	150.53147300000001	-13.95842700000000	0.40177900000000	0.00000000000000	0.09876600000000	-61.32739400000000	729.69944199999998	-50.80932900000000	0.13958900000000	0.00000000000000	-0.09431500000000	0.00000000000000	-13.81210100000000	0.00000000000000	0.00000000000000	-25.36185200000000	0.00000000000000	
22.44825200000000	5.38872600000000	157.52822100000000	-13.50260100000000	0.40294000000000	0.00000000000000	0.09924600000000	-61.74178800000000	723.89476400000001	-49.76060300000000	0.13915600000000	0.00000000000000	-0.09409100000000	0.00000000000000	-13.70591900000000	0.00000000000000	0.00000000000000	-25.14208800000000	0.00000000000000	
22.44991800000000	6.76799600000000	164.73628900000000	-13.01183700000000	0.40404200000000	0.00000000000000	0.09971200000000	-62.15330800000000	717.93255399999998	-48.68594200000000	0.13873100000000	0.00000000000000	-0.09386100000000	0.00000000000000	-13.58101600000000	0.00000000000000	0.00000000000000	-24.91823100000000	0.00000000000000	
22.45158300000000	8.19683600000000	172.14092500000001	-12.48146000000000	0.40508400000000	0.00000000000000	0.10016300000000	-62.56085800000000	711.81312500000001	-47.58645000000000	0.13831200000000	0.00000000000000	-0.09362600000000	0.00000000000000	-13.43342200000000	0.00000000000000	0.00000000000000	-24.69025300000000	0.00000000000000	
22.45325000000000	9.67723100000000	179.72611100000000	-11.90682600000000	0.40606700000000	0.00000000000000	0.10060200000000	-62.96325800000000	705.53686600000003	-46.46329000000000	0.13789900000000	0.00000000000000	-0.09338600000000	0.00000000000000	-13.25915200000000	0.00000000000000	0.00000000000000	-24.45811500000000	0.00000000000000	
